<?xml version="1.0" standalone="no"?><svg xmlns="http://www.w3.org/2000/svg" viewBox="0 0 1440 320"><path fill="#ffffef" fill-opacity="1" d="M0,256L34.3,224C68.6,192,137,128,206,128C274.3,128,343,192,411,208C480,224,549,192,617,186.7C685.7,181,754,203,823,208C891.4,213,960,203,1029,165.3C1097.1,128,1166,64,1234,74.7C1302.9,85,1371,171,1406,213.3L1440,256L1440,0L1405.7,0C1371.4,0,1303,0,1234,0C1165.7,0,1097,0,1029,0C960,0,891,0,823,0C754.3,0,686,0,617,0C548.6,0,480,0,411,0C342.9,0,274,0,206,0C137.1,0,69,0,34,0L0,0Z"></path></svg>